<?xml version="1.0" standalone="no"?>
<!DOCTYPE svg PUBLIC "-//W3C//DTD SVG 20010904//EN"
 "http://www.w3.org/TR/2001/REC-SVG-20010904/DTD/svg10.dtd">
<svg version="1.0" xmlns="http://www.w3.org/2000/svg"
 width="504.000000pt" height="493.000000pt" viewBox="0 0 504.000000 493.000000"
 preserveAspectRatio="xMidYMid meet">

<g transform="translate(0.000000,493.000000) scale(0.100000,-0.100000)"
fill="#000000" stroke="none">
<path d="M4020 4741 c-93 -29 -177 -102 -219 -191 -22 -47 -26 -69 -26 -145 0
-78 4 -98 28 -150 70 -150 239 -231 398 -191 273 69 360 406 154 595 -71 65
-142 91 -238 90 -40 0 -83 -4 -97 -8z"/>
<path d="M1950 4663 c-83 -8 -232 -36 -316 -59 -408 -110 -704 -341 -909 -709
l-27 -50 73 71 c300 288 660 442 1151 494 428 45 984 -79 1403 -313 258 -145
454 -305 687 -563 l46 -51 41 91 c23 50 41 95 41 99 0 5 -21 36 -47 70 -365
479 -1004 832 -1652 913 -103 12 -395 17 -491 7z"/>
<path d="M3409 4475 c-42 -7 -86 -16 -99 -20 -23 -7 -23 -8 13 -27 l37 -19 73
41 c39 22 68 39 62 39 -5 -1 -44 -7 -86 -14z"/>
<path d="M2758 4208 c-585 -358 -1250 -1119 -1680 -1923 -96 -179 -208 -419
-208 -445 0 -12 90 -130 99 -130 4 0 41 53 81 118 74 117 349 521 420 616 l37
51 -4 85 c-9 156 45 296 157 410 36 36 76 88 90 115 40 78 145 177 231 218 73
35 154 57 208 57 22 0 48 22 141 125 147 163 455 465 597 585 62 52 111 95
110 97 -1 1 -46 17 -99 37 l-96 35 -84 -51z"/>
<path d="M4206 3720 c-34 -100 -153 -363 -234 -515 -264 -502 -605 -962 -1052
-1418 -493 -504 -969 -875 -1435 -1119 -128 -67 -119 -72 65 -34 537 113 1222
555 1738 1121 176 194 265 301 359 435 211 301 362 585 462 871 74 209 125
483 119 634 l-3 80 -19 -55z"/>
<path d="M460 3705 c-162 -45 -274 -207 -257 -372 13 -126 107 -249 225 -293
81 -31 205 -25 280 14 70 35 128 95 161 165 22 48 26 69 26 151 0 79 -4 103
-24 142 -77 157 -249 238 -411 193z"/>
<path d="M4257 3460 c-3 -14 -14 -66 -23 -115 l-17 -90 25 -41 c71 -111 149
-290 214 -489 l33 -100 -5 90 c-14 238 -81 491 -183 693 -34 67 -40 74 -44 52z"/>
<path d="M2545 3379 c-28 -4 -66 -14 -84 -22 l-32 -14 65 -38 c36 -21 76 -50
91 -64 l25 -27 68 33 c37 18 99 39 137 46 l70 13 -65 32 c-36 17 -94 36 -130
42 -73 11 -75 11 -145 -1z"/>
<path d="M2118 3284 c-117 -28 -214 -96 -278 -196 -80 -124 -94 -300 -33 -431
36 -76 116 -166 181 -204 140 -82 324 -82 464 0 65 38 145 128 181 204 30 65
32 74 32 188 0 113 -2 124 -31 185 -44 94 -120 172 -207 215 -112 55 -200 66
-309 39z"/>
<path d="M2803 3205 c-61 -17 -136 -53 -131 -63 32 -61 59 -127 70 -167 6 -27
13 -51 14 -53 1 -2 32 6 69 17 161 50 361 14 489 -88 22 -17 41 -29 43 -27 11
11 -34 133 -67 184 -106 164 -308 245 -487 197z"/>
<path d="M1646 2837 c-15 -26 -35 -69 -43 -95 -19 -61 -21 -183 -4 -252 l14
-54 23 52 c13 29 37 72 55 97 l32 44 -17 63 c-10 35 -20 92 -24 128 l-7 65
-29 -48z"/>
<path d="M2870 2866 c-95 -27 -107 -38 -120 -117 -18 -106 -75 -211 -156 -289
l-67 -65 12 -59 c44 -212 236 -366 455 -366 51 0 71 20 263 252 186 226 184
221 172 288 -24 126 -114 252 -225 312 -101 54 -233 72 -334 44z"/>
<path d="M371 2769 c-1 -90 22 -321 44 -432 134 -692 545 -1222 1147 -1480 47
-20 92 -37 99 -37 7 0 71 39 142 86 l130 87 -91 32 c-516 184 -951 594 -1236
1164 -93 184 -166 381 -212 566 l-22 90 -1 -76z"/>
<path d="M1746 2518 c-135 -206 -72 -494 136 -628 124 -81 300 -94 431 -32 80
37 172 121 211 191 l26 50 -34 63 c-19 35 -42 90 -51 123 -10 33 -18 61 -19
62 -1 1 -31 -7 -66 -18 -96 -31 -232 -29 -328 4 -94 33 -159 75 -226 148 -30
32 -57 59 -60 59 -3 0 -12 -10 -20 -22z"/>
<path d="M4363 2420 c-85 -28 -169 -106 -208 -192 -37 -83 -39 -185 -6 -271
28 -70 105 -152 176 -187 43 -21 64 -25 150 -25 95 0 103 2 163 34 102 55 163
142 182 255 41 255 -210 467 -457 386z"/>
<path d="M2580 1980 c-37 -58 -139 -155 -187 -178 -18 -9 -33 -20 -33 -24 0
-17 125 -67 190 -77 77 -12 169 -1 242 31 58 25 180 151 150 156 -118 18 -219
57 -286 111 -21 17 -40 31 -41 31 -2 0 -17 -22 -35 -50z"/>
<path d="M4150 1554 c-218 -172 -539 -354 -812 -462 -305 -121 -557 -172 -850
-172 l-146 0 -64 -36 c-34 -20 -117 -63 -183 -97 l-120 -61 65 -12 c258 -50
624 -45 888 10 499 106 941 377 1191 731 106 150 109 160 31 99z"/>
<path d="M715 1360 c-10 -50 -15 -93 -12 -96 6 -6 77 117 77 132 -1 10 -35 54
-43 54 -2 0 -12 -41 -22 -90z"/>
<path d="M627 1029 c-107 -25 -209 -114 -247 -217 -18 -46 -21 -73 -18 -142 6
-136 63 -228 179 -290 158 -84 357 -34 456 114 42 62 57 115 57 201 0 217
-214 384 -427 334z"/>
</g>
</svg>
